<svg xmlns="http://www.w3.org/2000/svg" viewBox="0 0 920 400" version="1.1"><path d="M 362 62.046 C 343.871 62.792, 341.376 63.256, 338.663 66.383 C 337.653 67.547, 337.178 67.825, 337.608 67 C 339.148 64.043, 331.434 70.825, 328.270 75.209 C 321.716 84.289, 321.920 80.017, 322.225 202.124 C 322.500 312.500, 322.500 312.500, 324.683 317.225 C 328.258 324.964, 332.804 329.778, 339.782 333.213 L 346.176 336.361 400.674 336.768 C 430.647 336.991, 456.145 336.930, 457.335 336.631 C 459.500 336.088, 459.500 336.088, 459.500 267.794 L 459.500 199.500 527.750 199.243 C 565.288 199.102, 596 198.652, 596 198.243 C 596 197.834, 565.279 197.619, 527.730 197.764 L 459.460 198.027 459.483 130.514 L 459.505 63 456.503 62.885 C 454.851 62.822, 452.712 62.850, 451.750 62.948 C 450.788 63.046, 450 62.647, 450 62.063 C 450 61.478, 448.173 61, 445.941 61 C 443.709 61, 442.114 61.375, 442.397 61.833 C 442.680 62.292, 442.277 62.667, 441.500 62.667 C 440.723 62.667, 440.380 62.179, 440.736 61.583 C 441.092 60.987, 440.623 61.118, 439.692 61.872 C 438.589 62.767, 438 62.854, 438 62.122 C 438 61.505, 437.298 61, 436.441 61 C 435.584 61, 435.090 61.337, 435.344 61.750 C 435.598 62.163, 432.249 62.617, 427.903 62.760 C 423.079 62.918, 420 62.626, 420 62.010 C 420 61.454, 419.523 61, 418.941 61 C 418.359 61, 418.100 61.354, 418.368 61.786 C 418.635 62.218, 417.986 62.571, 416.927 62.571 C 415.867 62.571, 415 62.218, 415 61.786 C 415 60.701, 406.247 60.791, 405.572 61.883 C 404.845 63.059, 390 63.092, 390 61.917 C 390 60.952, 388.414 60.959, 362 62.046 M 575.640 66.497 C 575.336 67.288, 575.587 68.245, 576.198 68.622 C 576.871 69.038, 577.028 68.854, 576.595 68.155 C 576.168 67.464, 576.532 67, 577.500 67 C 578.468 67, 578.832 67.464, 578.405 68.155 C 577.943 68.901, 578.132 69.036, 578.941 68.537 C 579.677 68.082, 581.487 68.713, 583.345 70.073 C 585.440 71.606, 586.018 71.789, 585.067 70.618 C 584.279 69.648, 581.959 68, 579.913 66.956 C 576.785 65.360, 576.104 65.287, 575.640 66.497" stroke="none" fill="#479afe" fill-rule="evenodd"/><path d="M 597.012 158.500 C 596.923 162.350, 596.666 166.625, 596.439 168 C 596.145 169.780, 596.278 170.068, 596.901 169 C 598.367 166.489, 599.099 157.684, 598.107 154.500 C 597.312 151.950, 597.148 152.551, 597.012 158.500 M 596.467 189.642 C 596.443 197.381, 596.569 197.982, 597.675 195.392 C 599.016 192.251, 599.327 186.822, 598.370 183.250 C 597.183 178.823, 596.494 181.139, 596.467 189.642 M 460 267.750 L 460 336 515.810 336 C 571.621 336, 571.621 336, 577.931 333.527 C 589.573 328.964, 595.732 318.911, 597.551 301.500 C 598.322 294.119, 599.194 265.587, 599.714 230.750 C 600.091 205.528, 599.933 199.997, 598.837 199.986 C 598.102 199.978, 566.563 199.866, 528.750 199.736 L 460 199.500 460 267.750" stroke="none" fill="#e9f4ff" fill-rule="evenodd"/><path d="M 450 62.313 C 450 62.760, 450.788 63.046, 451.750 62.948 C 452.712 62.850, 454.851 62.822, 456.503 62.885 L 459.505 63 459.483 130.507 L 459.460 198.014 527.480 197.757 C 595.500 197.500, 595.500 197.500, 595.382 195.273 C 595.317 194.048, 595.655 193.287, 596.132 193.582 C 596.609 193.877, 597 193.641, 597 193.059 C 597 192.477, 596.438 191.993, 595.750 191.985 C 594.917 191.974, 595 191.646, 596 191 C 597.333 190.138, 597.333 190.027, 596 190 C 594.667 189.973, 594.667 189.862, 596 189 C 597.333 188.138, 597.333 188.027, 596 188 C 594.667 187.973, 594.667 187.862, 596 187 C 597.333 186.138, 597.333 186.027, 596 186 C 594.667 185.973, 594.667 185.862, 596 185 C 597.333 184.138, 597.333 184.027, 596 184 C 594.771 183.975, 594.746 183.813, 595.863 183.106 C 597.014 182.377, 597.014 182.158, 595.863 181.700 C 594.861 181.302, 594.933 181.137, 596.133 181.079 C 599.366 180.923, 600.029 190.559, 597.172 196.164 C 595.343 199.750, 595.343 199.750, 597.574 199.750 C 599.805 199.750, 599.805 199.750, 599.340 174.625 C 598.903 150.964, 598.848 142.236, 599.056 129.750 C 599.191 121.610, 597.188 88.845, 596.383 86.022 C 595.987 84.635, 595.626 83.240, 595.582 82.922 C 595.374 81.449, 591.459 75, 590.773 75 C 590.348 75, 590 74.380, 590 73.622 C 590 71.874, 580.620 64.708, 576 62.926 C 573.203 61.847, 560.206 61.568, 511.250 61.538 C 477.563 61.517, 450 61.866, 450 62.313 M 575.639 66.500 C 575.335 67.290, 575.587 68.245, 576.198 68.622 C 576.871 69.038, 577.028 68.854, 576.595 68.155 C 576.168 67.464, 576.532 67, 577.500 67 C 578.468 67, 578.832 67.464, 578.405 68.155 C 577.943 68.901, 578.132 69.036, 578.941 68.537 C 579.669 68.086, 581.506 68.678, 583.345 69.955 L 586.500 72.146 583.500 69.548 C 578.059 64.836, 576.508 64.235, 575.639 66.500 M 597.086 158.750 C 597.026 163.829, 596.626 166.005, 595.750 166.015 C 594.835 166.027, 594.865 166.262, 595.863 166.894 C 597.014 167.623, 597.014 167.833, 595.863 168.242 C 595.113 168.508, 594.862 169.112, 595.304 169.584 C 597.443 171.865, 599.697 159.687, 598.097 154.500 C 597.329 152.010, 597.157 152.733, 597.086 158.750 M 499.250 199.749 C 516.712 199.903, 545.287 199.903, 562.750 199.749 C 580.212 199.596, 565.925 199.471, 531 199.471 C 496.075 199.471, 481.787 199.596, 499.250 199.749 M 459.473 267.500 C 459.473 304.900, 459.597 320.055, 459.750 301.177 C 459.902 282.299, 459.902 251.699, 459.749 233.177 C 459.597 214.655, 459.473 230.100, 459.473 267.500" stroke="none" fill="#6baeff" fill-rule="evenodd"/></svg>